<svg width="90" height="100" viewBox="0 0 90 100" fill="none" xmlns="http://www.w3.org/2000/svg">
<path d="M89.087 0L81.0541 89.9895L44.9456 100L8.93656 90.0036L0.912109 0H89.087Z" fill="#264DE4"/>
<path d="M74.1774 84.2593L81.0421 7.35913H45V92.3484L74.1774 84.2593Z" fill="#2965F1"/>
<path d="M19.3086 40.7402L20.2979 51.7787H45.0002V40.7402H19.3086Z" fill="#EBEBEB"/>
<path d="M44.9998 18.3977H44.9617H17.3203L18.3238 29.4364H44.9998V18.3977Z" fill="#EBEBEB"/>
<path d="M45 80.8931V69.4083L44.9516 69.4212L32.6579 66.1016L31.872 57.2979H25.8982H20.791L22.3375 74.63L44.9492 80.9072L45 80.8931Z" fill="#EBEBEB"/>
<path d="M58.5537 51.7785L57.2724 66.0947L44.9609 69.4177V80.9019L67.5906 74.6301L67.7566 72.7652L70.3506 43.7042L70.6199 40.7401L72.6127 18.3977H44.9609V29.4364H60.5154L59.511 40.7401H44.9609V51.7785H58.5537Z" fill="#D9D9D9"/>
</svg>
