<svg width="84" height="100" viewBox="0 0 84 100" fill="none" xmlns="http://www.w3.org/2000/svg">
<path d="M14.4214 79.0998L4.74219 81.3082V18.6235L14.4214 20.8361V79.0998Z" fill="#F68536"/>
<path d="M26.4984 82.7998L14.4219 86.2318V13.786L26.4984 17.2137V82.7998ZM41.99 86.6012L26.4984 92.2707V7.74711L41.99 13.414V86.6012ZM83.4121 79.289L41.99 100V0L83.4121 20.711V79.289Z" fill="#F68536"/>
<path d="M33.7329 4.12914L41.9899 0V100L33.7329 95.8722V4.12914ZM20.1064 10.9416L26.4983 7.74581V92.2542L20.1064 89.0584V10.9416ZM9.33017 16.3305L14.4218 13.7847V86.2153L9.33017 83.6679V16.3305ZM4.7426 18.6237L0.589844 20.7V79.3013L4.7426 81.3763V18.6237Z" fill="#9D5025"/>
</svg>
