<svg width="100" height="98" viewBox="0 0 100 98" fill="none" xmlns="http://www.w3.org/2000/svg">
<path d="M50.0002 0.234375C22.3894 0.234375 0 22.6199 0 50.2346C0 72.3263 14.3266 91.0684 34.1933 97.6799C36.692 98.1427 37.6096 96.5953 37.6096 95.2745C37.6096 94.0824 37.563 90.1433 37.5418 85.9655C23.6313 88.9901 20.6961 80.0661 20.6961 80.0661C18.4217 74.2867 15.1446 72.7502 15.1446 72.7502C10.6083 69.6468 15.4865 69.7104 15.4865 69.7104C20.5075 70.0633 23.1513 74.8631 23.1513 74.8631C27.6108 82.5071 34.8482 80.297 37.7014 79.0198C38.15 75.7878 39.4461 73.5824 40.8758 72.3338C29.7703 71.0691 18.0954 66.7818 18.0954 47.6233C18.0954 42.1647 20.0487 37.704 23.2474 34.2026C22.7282 32.943 21.0169 27.8577 23.7317 20.9705C23.7317 20.9705 27.9304 19.6266 37.4853 26.0958C41.4734 24.9876 45.7509 24.4323 50.0002 24.4135C54.2495 24.4323 58.5301 24.9876 62.526 26.0958C72.0696 19.6266 76.2624 20.9705 76.2624 20.9705C78.9839 27.8577 77.2718 32.943 76.7526 34.2026C79.9584 37.704 81.8983 42.1643 81.8983 47.6233C81.8983 66.8273 70.2014 71.0562 59.0677 72.2938C60.861 73.8455 62.459 76.8885 62.459 81.5531C62.459 88.243 62.4009 93.6275 62.4009 95.2745C62.4009 96.6051 63.3009 98.1642 65.8357 97.6733C85.6915 91.0543 100 72.3189 100 50.2346C100 22.6199 77.6137 0.234375 50.0002 0.234375Z" fill="#161614"/>
<path d="M18.7259 71.4609C18.6161 71.7091 18.2248 71.7836 17.8691 71.6134C17.5063 71.4503 17.3024 71.1115 17.4201 70.8621C17.5279 70.6064 17.9193 70.5351 18.2812 70.7068C18.6447 70.8696 18.8518 71.2115 18.7259 71.4609ZM21.1854 73.6553C20.947 73.8765 20.4808 73.7738 20.1643 73.4244C19.8372 73.0758 19.7761 72.6099 20.018 72.3852C20.2639 72.1644 20.716 72.2675 21.0439 72.6166C21.3709 72.9691 21.4344 73.4322 21.185 73.6557L21.1854 73.6553ZM22.8728 76.4631C22.5662 76.676 22.065 76.4764 21.7556 76.0317C21.4493 75.5874 21.4493 75.0541 21.7623 74.8404C22.0729 74.6267 22.5662 74.8188 22.8799 75.26C23.1858 75.7121 23.1858 76.2454 22.8724 76.4635L22.8728 76.4631ZM25.7261 79.7151C25.452 80.0171 24.8684 79.9363 24.441 79.5238C24.0042 79.1206 23.8822 78.5485 24.1571 78.2462C24.4343 77.9434 25.0214 78.0285 25.452 78.4375C25.8861 78.8399 26.0186 79.4163 25.7265 79.7151H25.7261ZM29.4138 80.8131C29.2934 81.2045 28.7311 81.3825 28.1648 81.2163C27.5993 81.0449 27.2292 80.5861 27.3433 80.1904C27.4609 79.7963 28.0256 79.6108 28.5962 79.7889C29.1609 79.9594 29.5318 80.4147 29.4142 80.8131H29.4138ZM33.6113 81.2786C33.6254 81.6911 33.145 82.0331 32.5505 82.0405C31.9525 82.0535 31.469 81.7198 31.4627 81.3143C31.4627 80.8978 31.9321 80.559 32.5298 80.5492C33.1243 80.5375 33.6113 80.8688 33.6113 81.2786ZM37.7343 81.1206C37.8057 81.5229 37.3923 81.9362 36.8022 82.046C36.2218 82.1519 35.6846 81.9037 35.6104 81.5049C35.5383 81.0923 35.9594 80.6794 36.5386 80.5724C37.13 80.4696 37.659 80.7116 37.7343 81.1206Z" fill="#161614"/>
</svg>
