<svg width="100" height="38" viewBox="0 0 100 38" fill="none" xmlns="http://www.w3.org/2000/svg">
<path d="M7.54671 11.632C7.35195 11.632 7.30326 11.5346 7.40064 11.3886L8.4231 10.074C8.52048 9.92791 8.76392 9.83053 8.95867 9.83053H26.3404C26.5352 9.83053 26.5839 9.9766 26.4865 10.1227L25.6588 11.3886C25.5614 11.5346 25.318 11.6807 25.1719 11.6807L7.54671 11.632ZM0.194754 16.1113C0 16.1113 -0.0486884 16.014 0.0486884 15.8679L1.07115 14.5533C1.16852 14.4072 1.41196 14.3099 1.60672 14.3099H23.8086C24.0034 14.3099 24.1008 14.4559 24.0521 14.602L23.6626 15.7705C23.6139 15.9653 23.4191 16.0627 23.2244 16.0627L0.194754 16.1113ZM11.9774 20.5907C11.7826 20.5907 11.7339 20.4446 11.8313 20.2985L12.5129 19.0813C12.6103 18.9353 12.8051 18.7892 12.9998 18.7892H22.7375C22.9323 18.7892 23.0296 18.9353 23.0296 19.13L22.9323 20.2985C22.9323 20.4933 22.7375 20.6394 22.5914 20.6394L11.9774 20.5907ZM62.5159 10.7556C59.4486 11.5346 57.355 12.1189 54.3363 12.8979C53.606 13.0927 53.5573 13.1413 52.9243 12.411C52.194 11.5833 51.6584 11.0477 50.636 10.5609C47.5686 9.05152 44.5986 9.48972 41.8234 11.2912C38.5126 13.4335 36.8085 16.5982 36.8571 20.542C36.9058 24.4371 39.5837 27.6505 43.4301 28.1861C46.7409 28.6243 49.5161 27.4557 51.7071 24.9726C52.1453 24.4371 52.5348 23.8528 53.0217 23.1712H43.6248C42.6024 23.1712 42.3589 22.5382 42.6998 21.7105C43.3327 20.2012 44.5012 17.6694 45.1829 16.4035C45.3289 16.1113 45.6698 15.6245 46.4001 15.6245H64.1227C64.0253 16.939 64.0253 18.2536 63.8305 19.5682C63.295 23.0738 61.9804 26.2872 59.8381 29.1112C56.3325 33.7365 51.7558 36.6092 45.9619 37.3882C41.1904 38.0211 36.7598 37.0961 32.8647 34.1747C29.2617 31.4482 27.2168 27.8453 26.6813 23.3659C26.0483 18.0589 27.6063 13.2874 30.8198 9.10021C34.2767 4.57219 38.8534 1.69957 44.4525 0.677112C49.0293 -0.150591 53.4112 0.384982 57.355 3.06284C59.9355 4.76694 61.7856 7.10398 63.0028 9.92791C63.295 10.3661 63.1002 10.6095 62.5159 10.7556Z" fill="#00ACD7"/>
<path d="M78.6316 37.6804C74.2009 37.583 70.1598 36.3171 66.7516 33.3958C63.879 30.9127 62.0775 27.748 61.4933 23.9989C60.6169 18.4972 62.1262 13.6283 65.437 9.29504C68.9913 4.62095 73.2758 2.18653 79.0697 1.16408C84.036 0.287686 88.71 0.77457 92.9459 3.64719C96.7923 6.27636 99.178 9.83062 99.811 14.5047C100.639 21.0776 98.7399 26.4334 94.2118 31.0101C90.9984 34.2722 87.0546 36.3171 82.5266 37.2422C81.212 37.4856 79.8975 37.5343 78.6316 37.6804ZM90.2194 18.0103C90.1707 17.3773 90.1707 16.8904 90.0733 16.4036C89.1969 11.5834 84.7663 8.85685 80.1409 9.92799C75.6129 10.9504 72.6916 13.8231 71.6204 18.3998C70.744 22.1975 72.5942 26.0439 76.0998 27.6019C78.7776 28.7704 81.4555 28.6243 84.036 27.3098C87.8823 25.3135 89.9759 22.1975 90.2194 18.0103Z" fill="#00ACD7"/>
</svg>
