<svg width="46" height="100" viewBox="0 0 46 100" fill="none" xmlns="http://www.w3.org/2000/svg">
<path d="M22.6855 0.273193L25.3541 5.28532C25.9541 6.21025 26.604 7.02894 27.3696 7.79138C29.6141 10.0079 31.7062 12.3735 33.6316 14.8721C38.1532 20.8092 41.203 27.4024 43.3809 34.5331C44.6871 38.8891 45.3964 43.3575 45.4495 47.8759C45.6683 61.3843 41.0374 72.9834 31.7005 82.6233C30.1818 84.152 28.5411 85.5544 26.7946 86.8167C25.8697 86.8167 25.4322 86.1074 25.051 85.4543C24.3568 84.2433 23.8947 82.9133 23.6886 81.5328C23.3605 79.8985 23.1449 78.2643 23.2511 76.5769V75.8144C23.1761 75.6519 22.3606 0.65754 22.6855 0.273193Z" fill="#599636"/>
<path d="M22.6865 0.107501C22.5772 -0.111232 22.4678 0.0543804 22.3584 0.160623C22.4115 1.25429 22.0303 2.22922 21.4335 3.1604C20.7773 4.08533 19.9086 4.79466 19.0368 5.5571C14.1934 9.75054 10.3812 14.8158 7.32826 20.481C3.26606 28.1054 1.17246 36.2767 0.578753 44.8792C0.306897 47.9821 1.55993 58.9313 2.53799 62.0904C5.20654 70.4773 9.99994 77.5049 16.2089 83.6045C17.7338 85.0731 19.3649 86.4355 21.0523 87.7448C21.5429 87.7448 21.596 87.3073 21.7085 86.9823C21.9236 86.287 22.0875 85.5768 22.1991 84.8575L23.2927 76.6893L22.6865 0.107501Z" fill="#6CAC48"/>
<path d="M25.3556 90.1352C25.4649 88.8853 26.0649 87.8479 26.718 86.8136C26.0618 86.5417 25.5743 86.0012 25.1931 85.3981C24.8643 84.8271 24.5922 84.2253 24.3806 83.6013C23.6182 81.314 23.4557 78.9142 23.237 76.5769V75.1614C22.9651 75.3801 22.9089 77.23 22.9089 77.5049C22.7498 79.9753 22.422 82.4319 21.9277 84.8575C21.7652 85.8387 21.6558 86.8167 21.0527 87.6885C21.0527 87.7979 21.0527 87.9072 21.1059 88.0697C22.087 90.957 22.3558 93.8974 22.5214 96.894V97.9877C22.5214 99.2938 22.4683 99.0189 23.5526 99.4563C23.99 99.6188 24.4775 99.6751 24.915 100C25.2431 100 25.2962 99.7282 25.2962 99.5095L25.1337 97.7127V92.7006C25.0806 91.8257 25.2431 90.957 25.3524 90.1383L25.3556 90.1352Z" fill="#C2BFBF"/>
</svg>
