<svg width="100" height="100" viewBox="0 0 100 100" fill="none" xmlns="http://www.w3.org/2000/svg">
<path d="M92.1104 77.2453C86.6696 77.1076 82.4527 77.6599 78.916 79.1785C77.8957 79.5924 76.2632 79.5928 76.1272 80.9047C76.6713 81.4571 76.7394 82.3547 77.2155 83.1138C78.0325 84.4943 79.4598 86.3585 80.7522 87.3256C82.1802 88.4299 83.609 89.5342 85.1047 90.5009C87.7575 92.158 90.7504 93.1242 93.3348 94.7813C94.8316 95.7472 96.3269 96.9908 97.8233 98.0261C98.5716 98.5777 99.0473 99.4761 100 99.8209V99.6141C99.5235 98.9923 99.3874 98.0951 98.9117 97.4047C98.2323 96.7142 97.5513 96.0928 96.8711 95.4023C94.8989 92.7104 92.4505 90.3628 89.7981 88.4299C87.6218 86.9109 82.8604 84.8399 81.9766 82.2852C81.9766 82.2852 81.9081 82.2166 81.8405 82.1475C83.3366 82.0094 85.1047 81.4571 86.5335 81.0428C88.8458 80.421 90.9541 80.5595 93.3348 79.938C94.4227 79.6619 95.511 79.3166 96.599 78.9714V78.3504C95.3754 77.1076 94.4911 75.4509 93.1987 74.2771C89.7301 71.2387 85.921 68.2705 81.9766 65.7852C79.8679 64.4043 77.1471 63.5067 74.9028 62.3333C74.0874 61.9187 72.7266 61.7119 72.2508 61.0215C71.026 59.5028 70.3458 57.5009 69.462 55.7057C67.4902 51.9082 65.5852 47.6972 63.8847 43.6933C62.6611 41.0005 61.9129 38.3077 60.4164 35.8229C53.4111 24.0863 45.7936 16.9753 34.0957 10.0021C31.5789 8.55252 28.5864 7.93111 25.3898 7.172C23.6901 7.10256 21.9892 6.96487 20.2891 6.89542C19.2008 6.4121 18.1124 5.10063 17.1602 4.47921C13.2842 1.99356 3.28555 -3.39083 0.429089 3.72011C-1.40746 8.20729 3.1499 12.6254 4.71359 14.9044C5.87072 16.492 7.36639 18.2868 8.18263 20.082C8.65877 21.255 8.79443 22.4986 9.27057 23.741C10.3593 26.7779 11.3788 30.1615 12.8076 32.9924C13.5559 34.442 14.3717 35.9606 15.324 37.2724C15.8682 38.0316 16.8201 38.3772 17.0245 39.6196C16.0726 41.0005 16.0042 43.0719 15.4596 44.7977C13.0113 52.599 13.964 62.2643 17.4322 67.9943C18.5202 69.7197 21.1049 73.518 24.5736 72.0676C27.6345 70.8252 26.9543 66.89 27.8378 63.4381C28.0426 62.6087 27.9066 62.0571 28.3143 61.5048V61.6433C29.2666 63.5758 30.2185 65.4404 31.1028 67.3733C33.2114 70.7557 36.8837 74.2771 39.9442 76.6246C41.5771 77.8667 42.8691 80.0071 44.9097 80.7666V80.5591H44.7733C44.3652 79.9377 43.753 79.6619 43.2092 79.1781C41.9852 77.9361 40.6245 76.4171 39.6726 75.0362C36.8165 71.1696 34.2993 66.8896 32.0551 62.471C30.9671 60.3314 30.0144 57.9838 29.1306 55.8438C28.7221 55.0145 28.7221 53.7724 28.0422 53.3586C27.0219 54.8772 25.5259 56.189 24.7777 58.0529C23.486 61.0215 23.3496 64.6805 22.8735 68.4772C22.6014 68.5471 22.737 68.4772 22.601 68.6161C20.4251 68.063 19.6769 65.7852 18.8603 63.8519C16.8197 58.9505 16.4796 51.08 18.2485 45.4191C18.7246 43.9691 20.7652 39.4129 19.949 38.0319C19.5409 36.7201 18.1801 35.9606 17.4322 34.9253C16.5484 33.6134 15.5957 31.9571 14.9839 30.5067C13.3514 26.6406 12.5352 22.3601 10.767 18.4939C9.95077 16.6987 8.52312 14.8353 7.36639 13.1782C6.07439 11.3144 4.64596 10.0021 3.62566 7.79302C3.28595 7.03391 2.80941 5.79109 3.35357 4.96253C3.48962 4.41017 3.76131 4.20343 4.30586 4.06533C5.19013 3.30543 7.70688 4.27208 8.59036 4.68635C11.1071 5.72125 13.2154 6.68868 15.324 8.13825C16.2759 8.82871 17.2962 10.1406 18.5202 10.4858H19.9486C22.1252 10.9687 24.5732 10.6239 26.6138 11.2449C30.2189 12.4183 33.4831 14.1444 36.408 16.0087C45.3179 21.7387 52.6625 29.8853 57.628 39.6196C58.4442 41.2069 58.7839 42.6576 59.5322 44.3139C60.961 47.6972 62.7291 51.1491 64.1568 54.4629C65.5852 57.7073 66.9452 61.0215 68.9858 63.7142C70.0061 65.1634 74.0866 65.9233 75.9231 66.6828C77.2835 67.3038 79.3922 67.8566 80.6161 68.6157C82.9284 70.0649 85.2407 71.7228 87.4174 73.31C88.5057 74.1386 91.906 75.8647 92.1104 77.2453Z" fill="#00546B"/>
<path d="M22.7373 17.2507C21.5813 17.2507 20.7655 17.3896 19.9492 17.5964V17.7345H20.0853C20.6298 18.8392 21.5813 19.5987 22.2611 20.5649C22.8057 21.6693 23.2814 22.7744 23.826 23.8791C23.8936 23.8097 23.9616 23.741 23.9616 23.741C24.9143 23.0502 25.3901 21.9459 25.3901 20.2888C24.9819 19.8058 24.9139 19.3225 24.5738 18.8392C24.1661 18.1483 23.2814 17.8035 22.7373 17.2507Z" fill="#00546B"/>
</svg>
