<svg width="92" height="100" viewBox="0 0 92 100" fill="none" xmlns="http://www.w3.org/2000/svg">
<path d="M41.9054 1.06686C44.385 -0.352413 47.6146 -0.358823 50.092 1.06686C62.5556 8.10944 75.0231 15.141 87.4846 22.1878C89.8284 23.5081 91.3962 26.1166 91.3723 28.8173V71.1881C91.3898 74.0007 89.6671 76.6715 87.1943 77.9618C74.7717 84.9656 62.3554 91.9779 49.9349 98.9816C47.4041 100.429 44.1097 100.317 41.6579 98.7516C37.9336 96.5926 34.2029 94.4443 30.4783 92.2874C29.7172 91.8336 28.8592 91.4725 28.3218 90.7346C28.7969 90.0942 29.6463 90.0144 30.3365 89.7348C31.8911 89.2405 33.3189 88.447 34.7471 87.677C35.1083 87.4298 35.5492 87.5246 35.8954 87.7457C39.0801 89.5717 42.2367 91.4508 45.4321 93.2593C46.1138 93.6529 46.804 93.1304 47.3867 92.8056C59.5771 85.9158 71.7825 79.052 83.9707 72.1601C84.4223 71.9428 84.672 71.4634 84.6353 70.9688C84.6439 56.9915 84.6375 43.0118 84.6396 29.0345C84.6912 28.4732 84.3664 27.9572 83.8589 27.7274C71.4794 20.7557 59.1062 13.7733 46.7288 6.79986C46.5144 6.65243 46.2604 6.57333 46.0001 6.57295C45.7399 6.57257 45.4856 6.65093 45.2707 6.79773C32.8933 13.7733 20.5224 20.7621 8.14495 27.7335C7.63921 27.9636 7.2998 28.4711 7.35999 29.0345C7.36212 43.0118 7.35999 56.9915 7.35999 70.9709C7.33852 71.2123 7.39154 71.4544 7.51189 71.6647C7.63224 71.8751 7.81415 72.0435 8.03312 72.1473C11.3361 74.0203 14.6433 75.8801 17.9484 77.7467C19.8104 78.7489 22.0965 79.3444 24.148 78.5765C25.9583 77.9273 27.2273 76.0799 27.1927 74.1577C27.2098 60.2621 27.1842 46.3642 27.2056 32.4707C27.1603 31.8538 27.7455 31.3442 28.3453 31.4022C29.9323 31.3916 31.5214 31.3809 33.1085 31.4065C33.7709 31.3916 34.2268 32.0558 34.1449 32.6773C34.1385 46.6609 34.162 60.6449 34.1342 74.6286C34.1385 78.3554 32.6074 82.4105 29.1601 84.234C24.9134 86.434 19.6644 85.9674 15.4689 83.8579C11.8368 82.0451 8.37075 79.9057 4.80316 77.9636C2.32398 76.6804 0.609808 73.9989 0.62726 71.1885V28.8173C0.60126 26.0606 2.23138 23.4048 4.64823 22.1038C17.0687 15.0943 29.4871 8.07952 41.9054 1.06686Z" fill="#8CC84B"/>
<path d="M52.742 30.4174C58.1591 30.0687 63.9584 30.2108 68.833 32.8795C72.6072 34.9245 74.6996 39.2165 74.7662 43.4095C74.6608 43.9751 74.0696 44.2871 73.5296 44.2483C71.9579 44.2461 70.3859 44.2696 68.8142 44.2376C68.1474 44.2632 67.76 43.6485 67.6763 43.0591C67.2247 41.0529 66.1306 39.0659 64.2422 38.0982C61.3435 36.6469 57.9825 36.7199 54.8216 36.7502C52.5141 36.8727 50.0328 37.0725 48.0778 38.4294C46.577 39.4573 46.1211 41.5322 46.6568 43.2033C47.1618 44.4032 48.5469 44.7903 49.6802 45.1472C56.2085 46.8546 63.1264 46.6847 69.53 48.9317C72.1812 49.8477 74.7748 51.6285 75.6822 54.4043C76.8693 58.1247 76.349 62.5717 73.702 65.5584C71.5555 68.0162 68.4292 69.3539 65.311 70.0804C61.1629 71.0054 56.8581 71.0289 52.6455 70.6182C48.6844 70.1666 44.5623 69.1259 41.5043 66.427C38.8894 64.1565 37.6123 60.6189 37.7391 57.2044C37.7693 56.6278 38.3435 56.2257 38.8958 56.2731C40.4786 56.2603 42.0613 56.256 43.6441 56.2752C44.2763 56.23 44.745 56.7763 44.7774 57.3722C45.0694 59.2837 45.7878 61.2899 47.4546 62.4231C50.6714 64.4984 54.7076 64.3563 58.391 64.4144C61.4425 64.2791 64.868 64.2381 67.3582 62.2212C68.6721 61.0708 69.0613 59.1462 68.7063 57.4904C68.3216 56.0925 66.8592 55.4411 65.6034 55.0151C59.1588 52.9765 52.1636 53.7163 45.7814 51.4109C43.1903 50.4952 40.6848 48.7639 39.6894 46.1021C38.3004 42.3347 38.9368 37.6747 41.8612 34.7888C44.7125 31.9182 48.8286 30.8127 52.742 30.4171V30.4174Z" fill="#8CC84B"/>
</svg>
