<svg width="100" height="35" viewBox="0 0 100 35" fill="none" xmlns="http://www.w3.org/2000/svg">
<rect width="100" height="35" rx="10" fill="#7370FF"/>
<path d="M17.5838 15.5C17.5554 15.1449 17.4222 14.8679 17.1843 14.669C16.9499 14.4702 16.593 14.3707 16.1136 14.3707C15.8082 14.3707 15.5579 14.408 15.3626 14.4826C15.1708 14.5536 15.0288 14.6513 14.9364 14.7756C14.8441 14.8999 14.7962 15.0419 14.7926 15.2017C14.7855 15.3331 14.8086 15.4521 14.8619 15.5586C14.9187 15.6616 15.0075 15.7557 15.1282 15.8409C15.2489 15.9226 15.4034 15.9972 15.5916 16.0646C15.7798 16.1321 16.0036 16.1925 16.2628 16.2457L17.1577 16.4375C17.7614 16.5653 18.2781 16.734 18.7077 16.9435C19.1374 17.1531 19.489 17.3999 19.7624 17.6839C20.0359 17.9645 20.2365 18.2805 20.3643 18.6321C20.4957 18.9837 20.5632 19.3672 20.5668 19.7827C20.5632 20.5 20.3839 21.1072 20.0288 21.6044C19.6737 22.1016 19.1658 22.4798 18.5053 22.739C17.8484 22.9982 17.0582 23.1278 16.1349 23.1278C15.1868 23.1278 14.3594 22.9876 13.6527 22.707C12.9496 22.4265 12.4027 21.995 12.0121 21.4126C11.625 20.8267 11.4297 20.0774 11.4261 19.1648H14.2386C14.2564 19.4986 14.3398 19.7791 14.489 20.0064C14.6381 20.2337 14.8477 20.4059 15.1175 20.5231C15.391 20.6403 15.7159 20.6989 16.0923 20.6989C16.4084 20.6989 16.6729 20.6598 16.886 20.5817C17.0991 20.5036 17.2607 20.3952 17.3707 20.2567C17.4808 20.1183 17.5376 19.9602 17.5412 19.7827C17.5376 19.6158 17.4826 19.4702 17.3761 19.3459C17.2731 19.218 17.1026 19.1044 16.8647 19.005C16.6268 18.902 16.3054 18.8061 15.9006 18.7173L14.8139 18.483C13.848 18.2734 13.0863 17.9237 12.5288 17.4336C11.9748 16.94 11.6996 16.267 11.7031 15.4148C11.6996 14.7223 11.8842 14.1168 12.2571 13.5984C12.6335 13.0763 13.1538 12.6697 13.8178 12.3786C14.4854 12.0874 15.2507 11.9418 16.1136 11.9418C16.9943 11.9418 17.756 12.0891 18.3988 12.3839C19.0415 12.6786 19.5369 13.0941 19.8849 13.6303C20.2365 14.163 20.4141 14.7862 20.4176 15.5H17.5838ZM23.1848 23L21.1394 14.8182H24.0797L25.0172 19.804H25.0811L26.1252 14.8182H28.9803L30.0669 19.7614H30.1309L31.0257 14.8182H33.9661L31.9206 23H28.7459L27.5953 18.6108H27.5101L26.3596 23H23.1848ZM34.861 23V14.8182H37.8013V23H34.861ZM36.3311 13.9659C35.9334 13.9659 35.5925 13.8345 35.3084 13.5717C35.0243 13.3089 34.8823 12.9929 34.8823 12.6236C34.8823 12.2543 35.0243 11.9382 35.3084 11.6754C35.5925 11.4126 35.9334 11.2812 36.3311 11.2812C36.7324 11.2812 37.0733 11.4126 37.3539 11.6754C37.638 11.9382 37.78 12.2543 37.78 12.6236C37.78 12.9929 37.638 13.3089 37.3539 13.5717C37.0733 13.8345 36.7324 13.9659 36.3311 13.9659ZM39.2994 26.0682V14.8182H42.2185V16.2457H42.2824C42.3889 15.9687 42.5452 15.7148 42.7512 15.484C42.9571 15.2496 43.2128 15.0632 43.5182 14.9247C43.8236 14.7827 44.1787 14.7116 44.5835 14.7116C45.1233 14.7116 45.6365 14.8555 46.123 15.1431C46.613 15.4308 47.0107 15.8835 47.3161 16.5014C47.6251 17.1193 47.7796 17.9219 47.7796 18.9091C47.7796 19.8537 47.6322 20.6367 47.3374 21.2582C47.0463 21.8796 46.6556 22.343 46.1656 22.6484C45.6791 22.9538 45.1446 23.1065 44.5622 23.1065C44.1787 23.1065 43.836 23.0444 43.5342 22.9201C43.2359 22.7923 42.9802 22.62 42.7671 22.4034C42.5576 22.1832 42.396 21.9347 42.2824 21.6577H42.2398V26.0682H39.2994ZM42.1759 18.9091C42.1759 19.3068 42.2274 19.6513 42.3303 19.9425C42.4369 20.2301 42.586 20.4538 42.7778 20.6136C42.9731 20.7699 43.2057 20.848 43.4756 20.848C43.7455 20.848 43.9745 20.7717 44.1627 20.619C44.3545 20.4627 44.5001 20.2408 44.5995 19.9531C44.7025 19.6619 44.754 19.3139 44.754 18.9091C44.754 18.5043 44.7025 18.158 44.5995 17.8704C44.5001 17.5792 44.3545 17.3572 44.1627 17.2045C43.9745 17.0483 43.7455 16.9702 43.4756 16.9702C43.2057 16.9702 42.9731 17.0483 42.7778 17.2045C42.586 17.3572 42.4369 17.5792 42.3303 17.8704C42.2274 18.158 42.1759 18.5043 42.1759 18.9091ZM52.9318 23.1491C52.0582 23.1491 51.3054 22.9822 50.6733 22.6484C50.0447 22.3111 49.56 21.8281 49.2191 21.1996C48.8817 20.5675 48.7131 19.8111 48.7131 18.9304C48.7131 18.0852 48.8835 17.3466 49.2244 16.7145C49.5653 16.0824 50.0465 15.5906 50.668 15.239C51.2894 14.8874 52.0227 14.7116 52.8679 14.7116C53.4858 14.7116 54.0451 14.8075 54.5458 14.9993C55.0465 15.1911 55.4744 15.4698 55.8295 15.8356C56.1847 16.1978 56.4581 16.6381 56.6499 17.1566C56.8416 17.6751 56.9375 18.2592 56.9375 18.9091V19.5909H49.6293V17.9716H54.2315C54.228 17.7372 54.1676 17.5312 54.0504 17.3537C53.9368 17.1726 53.7823 17.0323 53.587 16.9329C53.3952 16.8299 53.1768 16.7784 52.9318 16.7784C52.6939 16.7784 52.4755 16.8299 52.2766 16.9329C52.0778 17.0323 51.918 17.1708 51.7972 17.3484C51.68 17.5259 51.6179 17.7337 51.6108 17.9716V19.7188C51.6108 19.9815 51.6658 20.2159 51.7759 20.4219C51.886 20.6278 52.044 20.7894 52.25 20.9066C52.456 21.0238 52.7045 21.0824 52.9957 21.0824C53.1982 21.0824 53.3828 21.054 53.5497 20.9972C53.7202 20.9403 53.8658 20.8587 53.9865 20.7521C54.1072 20.642 54.196 20.5107 54.2528 20.358H56.9375C56.8452 20.9261 56.6268 21.4197 56.2823 21.8388C55.9379 22.2543 55.4815 22.5774 54.9134 22.8082C54.3487 23.0355 53.6882 23.1491 52.9318 23.1491ZM61.1256 23V14.8182H63.9168V16.3736H64.002C64.1725 15.8622 64.4637 15.4574 64.8756 15.1591C65.2876 14.8608 65.7776 14.7116 66.3458 14.7116C66.9211 14.7116 67.4165 14.8643 67.8319 15.1697C68.2474 15.4716 68.4978 15.8729 68.583 16.3736H68.6682C68.8067 15.8729 69.1015 15.4716 69.5525 15.1697C70.0035 14.8643 70.5326 14.7116 71.1398 14.7116C71.9246 14.7116 72.5603 14.9638 73.0468 15.468C73.5368 15.9723 73.7819 16.6435 73.7819 17.4815V23H70.8415V18.2273C70.8415 17.8686 70.751 17.5881 70.5699 17.3857C70.3888 17.1797 70.1455 17.0767 69.8401 17.0767C69.5383 17.0767 69.2986 17.1797 69.121 17.3857C68.947 17.5881 68.86 17.8686 68.86 18.2273V23H66.0475V18.2273C66.0475 17.8686 65.9569 17.5881 65.7758 17.3857C65.5947 17.1797 65.3515 17.0767 65.0461 17.0767C64.8437 17.0767 64.6697 17.1229 64.5241 17.2152C64.3785 17.3075 64.2648 17.4407 64.1832 17.6147C64.105 17.7852 64.066 17.9893 64.066 18.2273V23H61.1256ZM79.1525 23.1491C78.2789 23.1491 77.5261 22.9822 76.894 22.6484C76.2654 22.3111 75.7807 21.8281 75.4398 21.1996C75.1025 20.5675 74.9338 19.8111 74.9338 18.9304C74.9338 18.0852 75.1042 17.3466 75.4451 16.7145C75.786 16.0824 76.2672 15.5906 76.8887 15.239C77.5101 14.8874 78.2434 14.7116 79.0886 14.7116C79.7065 14.7116 80.2658 14.8075 80.7665 14.9993C81.2672 15.1911 81.6951 15.4698 82.0502 15.8356C82.4054 16.1978 82.6788 16.6381 82.8706 17.1566C83.0623 17.6751 83.1582 18.2592 83.1582 18.9091V19.5909H75.85V17.9716H80.4522C80.4487 17.7372 80.3883 17.5312 80.2711 17.3537C80.1575 17.1726 80.003 17.0323 79.8077 16.9329C79.6159 16.8299 79.3975 16.7784 79.1525 16.7784C78.9146 16.7784 78.6962 16.8299 78.4973 16.9329C78.2985 17.0323 78.1387 17.1708 78.0179 17.3484C77.9007 17.5259 77.8386 17.7337 77.8315 17.9716V19.7188C77.8315 19.9815 77.8865 20.2159 77.9966 20.4219C78.1067 20.6278 78.2647 20.7894 78.4707 20.9066C78.6767 21.0238 78.9252 21.0824 79.2164 21.0824C79.4189 21.0824 79.6035 21.054 79.7704 20.9972C79.9409 20.9403 80.0865 20.8587 80.2072 20.7521C80.3279 20.642 80.4167 20.5107 80.4735 20.358H83.1582C83.0659 20.9261 82.8475 21.4197 82.503 21.8388C82.1586 22.2543 81.7022 22.5774 81.1341 22.8082C80.5694 23.0355 79.9089 23.1491 79.1525 23.1491ZM87.7671 12.0909L87.4901 19.5909H85.0612L84.7842 12.0909H87.7671ZM86.2757 23.1705C85.8637 23.1705 85.5104 23.0266 85.2156 22.739C84.9244 22.4478 84.7806 22.0945 84.7842 21.679C84.7806 21.2741 84.9244 20.9279 85.2156 20.6403C85.5104 20.3526 85.8637 20.2088 86.2757 20.2088C86.6663 20.2088 87.0107 20.3526 87.309 20.6403C87.6109 20.9279 87.7636 21.2741 87.7671 21.679C87.7636 21.956 87.6908 22.2081 87.5487 22.4354C87.4102 22.6591 87.2291 22.8384 87.0054 22.9734C86.7817 23.1048 86.5384 23.1705 86.2757 23.1705Z" fill="#D9D9D9"/>
</svg>
