<svg width="98" height="100" viewBox="0 0 98 100" fill="none" xmlns="http://www.w3.org/2000/svg">
<path d="M97.1083 59.9022C96.5269 58.1365 95.004 56.9067 93.0345 56.6116C92.1058 56.4726 91.0423 56.5319 89.7837 56.792C87.59 57.2459 85.9625 57.4187 84.7747 57.4521C89.258 49.8619 92.9034 41.2063 95.0021 33.0585C98.3957 19.8837 96.5822 13.8818 94.4631 11.167C88.855 3.98123 80.6728 0.120977 70.8019 0.00285975C65.5361 -0.0617057 60.9135 0.980837 58.502 1.73056C56.2568 1.33329 53.8426 1.11149 51.3095 1.07047C46.5611 0.99451 42.3657 2.0325 38.7809 4.16582C36.7962 3.49281 33.6109 2.54408 29.9325 1.93869C21.2811 0.514446 14.3083 1.62421 9.20811 5.23722C3.03221 9.61172 0.169247 17.2122 0.698739 27.8276C0.866903 31.1979 2.74702 41.4524 5.70732 51.1775C7.40867 56.7673 9.22288 61.4092 11.0996 64.9755C13.7611 70.0325 16.6089 73.0105 19.8059 74.08C21.5978 74.6786 24.8535 75.0978 28.2778 72.238C28.7118 72.7651 29.2909 73.2889 30.0594 73.7754C31.0354 74.3926 32.2289 74.8969 33.4208 75.1958C37.7162 76.2726 41.7397 76.0033 45.1723 74.494C45.1935 75.1062 45.2098 75.6911 45.2234 76.1962C45.2461 77.0154 45.2689 77.8187 45.2988 78.57C45.5022 83.6494 45.8468 87.5989 46.8679 90.3623C46.924 90.5142 46.9994 90.7459 47.0789 90.9916C47.5883 92.5556 48.4401 95.1739 50.6073 97.2244C52.8514 99.3487 55.5659 100 58.052 100C59.2989 100 60.4885 99.8359 61.532 99.6118C65.2513 98.8124 69.4755 97.5947 72.5312 93.2316C75.4203 89.107 76.8248 82.8947 77.0789 73.1062C77.1118 72.8293 77.1421 72.565 77.1713 72.3132L77.2319 71.7959L77.9125 71.8559L78.0879 71.8677C81.8761 72.0409 86.5082 71.2353 89.353 69.9102C91.6009 68.8642 98.8043 65.0507 97.1083 59.9022Z" fill="black"/>
<path d="M90.6308 60.9033C79.3668 63.2333 78.5922 59.4092 78.5922 59.4092C90.485 41.7133 95.4568 19.2509 91.1667 13.7533C79.4618 -1.24298 59.2006 5.84936 58.8624 6.03318L58.7537 6.05293C56.5282 5.58958 54.0379 5.31385 51.2385 5.26789C46.1421 5.18434 42.2758 6.60782 39.342 8.83875C39.342 8.83875 3.19788 -6.09261 4.87915 27.6175C5.23669 34.7888 15.1296 81.8803 26.9292 67.6565C31.242 62.4551 35.4094 58.0575 35.4094 58.0575C37.4789 59.4361 39.9567 60.1395 42.5542 59.887L42.756 59.7153C42.6932 60.3609 42.722 60.9925 42.8367 61.7404C39.7969 65.146 40.6903 65.7438 34.6137 66.9983C28.4647 68.2691 32.0768 70.5312 34.4353 71.1229C37.2945 71.8396 43.909 72.8551 48.3782 66.5813L48.2002 67.2972C49.391 68.2539 50.2273 73.5194 50.0871 78.2931C49.947 83.0664 49.8534 86.3436 50.7916 88.9035C51.7305 91.4633 52.6657 97.2229 60.6543 95.5066C67.329 94.0721 70.7881 90.3551 71.2695 84.1545C71.6107 79.7466 72.3838 80.3983 72.4322 76.4571L73.0523 74.5916C73.767 68.6162 73.1659 66.6884 77.278 67.5851L78.2779 67.6732C81.3041 67.811 85.2658 67.1848 87.591 66.1012C92.5973 63.7715 95.5667 59.8813 90.63 60.9033H90.6308Z" fill="#336791"/>
<path d="M41.4588 30.8247C40.4437 30.683 39.5245 30.8141 39.0594 31.1673C38.7981 31.3659 38.717 31.5961 38.695 31.7544C38.6367 32.1741 38.9299 32.6382 39.1102 32.8775C39.62 33.555 40.3646 34.0207 41.1016 34.1232C41.2084 34.1384 41.3149 34.1452 41.4205 34.1452C42.6496 34.1452 43.7673 33.1855 43.8657 32.4772C43.9888 31.59 42.7045 30.9986 41.4588 30.8251V30.8247ZM75.0857 30.8528C74.9888 30.1574 73.7548 29.9591 72.5837 30.1225C71.4141 30.2858 70.2801 30.8152 70.3748 31.5121C70.4506 32.0541 71.4266 32.9793 72.5818 32.9793C72.6795 32.9793 72.778 32.9728 72.8772 32.9588C73.6484 32.8517 74.2142 32.3606 74.4831 32.0776C74.8922 31.6462 75.1293 31.1654 75.0857 30.8528Z" fill="#D9D9D9"/>
<path d="M94.3799 60.6388C93.9504 59.3365 92.5679 58.9176 90.2712 59.3931C83.4518 60.8044 81.0096 59.8268 80.2078 59.2347C85.5084 51.1374 89.869 41.3493 92.2214 32.217C93.3357 27.8911 93.9511 23.8736 94.0015 20.599C94.0572 17.005 93.4466 14.3639 92.1877 12.7505C87.1117 6.24643 79.6616 2.75761 70.6436 2.6619C64.4438 2.59202 59.2057 4.18299 58.1903 4.63039C56.0518 4.09716 53.7206 3.76977 51.1826 3.72799C46.5285 3.65241 42.5055 4.76978 39.1747 7.04743C37.7279 6.50735 33.9889 5.22022 29.4162 4.48151C21.5109 3.20539 15.229 4.17236 10.7461 7.35696C5.397 11.1572 2.92755 17.9503 3.40591 27.547C3.56688 30.7757 5.40155 40.7082 8.29672 50.2202C12.1077 62.7399 16.2505 69.8273 20.6091 71.2853C21.1193 71.4558 21.7075 71.5751 22.3563 71.5751C23.9463 71.5751 25.8957 70.8565 27.9239 68.4114C30.3978 65.4355 32.9568 62.5319 35.5978 59.7041C37.3113 60.6263 39.1937 61.1413 41.1189 61.1929C41.1226 61.2434 41.1276 61.294 41.1321 61.3441C40.8007 61.7404 40.4762 62.1424 40.1587 62.55C38.8248 64.248 38.5471 64.6016 34.2532 65.4881C33.0318 65.741 29.7878 66.4114 29.7401 68.6917C29.6885 71.1831 33.5749 72.2295 34.0177 72.3404C35.5607 72.7278 37.0473 72.9188 38.4649 72.9188C41.9127 72.9188 44.9469 71.7825 47.3716 69.5838C47.297 78.4658 47.6663 87.2178 48.7298 89.8844C49.601 92.0675 51.7288 97.4025 58.4501 97.4021C59.4364 97.4021 60.5219 97.287 61.7161 97.0303C68.7309 95.5225 71.7772 92.4135 72.9555 85.5592C73.5861 81.8961 74.6682 73.149 75.1772 68.4569C76.2514 68.7931 77.6342 68.9469 79.1291 68.9465C82.247 68.9465 85.8447 68.2822 88.101 67.2321C90.6356 66.0517 95.2093 63.1553 94.3799 60.6388ZM77.6747 28.9333C77.6516 30.3184 77.4615 31.5759 77.26 32.8885C77.043 34.3002 76.8187 35.7598 76.7623 37.5315C76.7066 39.2558 76.9214 41.0485 77.1289 42.7822C77.5486 46.284 77.9792 49.889 76.3123 53.4462C76.0355 52.9542 75.7888 52.4457 75.5738 51.9236C75.3666 51.42 74.9166 50.611 74.2936 49.4914C71.87 45.1328 66.1944 34.9261 69.0998 30.7612C69.9652 29.5216 72.1616 28.247 77.6747 28.9333ZM70.992 5.46671C79.0723 5.64559 85.4641 8.67676 89.9894 14.4755C93.4603 18.9233 89.6383 39.1616 78.5739 56.6213C78.4626 56.4794 78.3507 56.338 78.2383 56.1971L78.0982 56.0216C80.9573 51.2867 80.3983 46.6019 79.9006 42.4484C79.6961 40.7439 79.5029 39.1339 79.5522 37.6215C79.6029 36.0188 79.8143 34.6439 80.0188 33.3146C80.2699 31.6766 80.5256 29.9815 80.4551 27.9834C80.5078 27.7738 80.529 27.5261 80.5013 27.2322C80.3214 25.3161 78.1398 19.5815 73.6933 14.3912C71.2609 11.5522 67.714 8.3752 62.8709 6.23238C64.954 5.79941 67.8026 5.39569 70.992 5.46671ZM25.7776 66.6218C23.5429 69.316 21.9999 68.7995 21.4924 68.6301C18.1859 67.5242 14.3491 60.5161 10.9665 49.4032C8.03955 39.7875 6.32911 30.1182 6.19352 27.4069C5.76629 18.8318 7.83919 12.8557 12.355 9.6441C19.7043 4.41809 31.7872 7.5461 36.6424 9.13252C36.5727 9.20164 36.5 9.26621 36.4311 9.33647C28.4637 17.4049 28.6527 31.19 28.6724 32.0328C28.6716 32.3579 28.6989 32.8182 28.736 33.4514C28.8731 35.77 29.1284 40.0853 28.4466 44.9721C27.8133 49.5134 29.2094 53.9582 32.2762 57.1671C32.5909 57.4958 32.9217 57.8086 33.2674 58.1044C31.9023 59.5704 28.9356 62.8124 25.7776 66.6218ZM34.2915 55.2305C31.8198 52.6441 30.6972 49.0466 31.2111 45.3595C31.9307 40.1973 31.6652 35.7013 31.5225 33.2858C31.5024 32.9477 31.4846 32.6515 31.4743 32.4179C32.6383 31.383 38.032 28.4851 41.8786 29.3689C43.6338 29.7719 44.7033 30.9705 45.148 33.0321C47.4493 43.7055 45.4525 48.1541 43.8481 51.7291C43.5175 52.4656 43.205 53.1617 42.9384 53.8818L42.7316 54.4386C42.2081 55.8461 41.7211 57.1549 41.4192 58.3976C38.7914 58.39 36.2352 57.2643 34.2915 55.2301V55.2305ZM34.6949 69.6248C33.9275 69.4326 33.2374 69.0988 32.8326 68.8219C33.1708 68.6624 33.7726 68.4452 34.8164 68.2294C39.8678 67.1869 40.6481 66.4509 42.3517 64.2818C42.7422 63.7843 43.1849 63.2207 43.7981 62.534L43.7989 62.5332C44.7121 61.5078 45.1298 61.6817 45.8873 61.997C46.5013 62.2514 47.0993 63.0232 47.3417 63.8724C47.4565 64.2735 47.5853 65.0346 47.1637 65.6271C43.605 70.6237 38.4191 70.5595 34.6949 69.6248ZM61.1313 94.2935C54.9516 95.6212 52.7635 92.4594 51.3216 88.8449C50.391 86.5114 49.9335 75.9887 50.2581 64.368C50.2623 64.2135 50.2403 64.0642 50.1979 63.9237C50.1599 63.6462 50.1022 63.3718 50.0252 63.1026C49.5426 61.4117 48.3666 59.9973 46.9558 59.4109C46.3952 59.1781 45.3665 58.7508 44.1303 59.068C44.3939 57.9787 44.8511 56.7485 45.3468 55.4166L45.5548 54.8564C45.7888 54.2248 46.0828 53.5704 46.3933 52.8776C48.0723 49.1374 50.3717 44.0143 47.8761 32.4407C46.9414 28.1057 43.8197 25.9887 39.0876 26.4805C36.2508 26.7749 33.6552 27.9226 32.3606 28.5808C32.0822 28.7221 31.8277 28.8588 31.5899 28.9918C31.9512 24.6241 33.3162 16.4615 38.4225 11.297C41.6377 8.04591 45.9195 6.44013 51.1364 6.52672C61.4157 6.69535 68.0075 11.9852 71.7276 16.3935C74.9333 20.1919 76.6691 24.0183 77.3619 26.0821C72.1521 25.5508 68.6089 26.582 66.8129 29.157C62.9053 34.7582 68.9506 45.6296 71.856 50.8545C72.3889 51.8119 72.8487 52.6395 72.9934 52.9912C73.9395 55.2905 75.1644 56.8256 76.0586 57.946C76.3328 58.2894 76.5987 58.6225 76.8009 58.9134C75.2231 59.3695 72.3889 60.4235 72.6472 65.6916C72.4389 68.335 70.9576 80.7111 70.205 85.0837C69.2115 90.8605 67.0917 93.012 61.1313 94.2938V94.2935ZM86.9257 64.6935C85.3122 65.4444 82.6121 66.0076 80.0472 66.1288C77.2141 66.2617 75.7719 65.8105 75.4325 65.5329C75.2734 62.2499 76.4919 61.907 77.7815 61.5439C77.9841 61.4869 78.1819 61.4311 78.3727 61.3642C78.4913 61.4611 78.6212 61.5572 78.7636 61.6513C81.0407 63.1584 85.102 63.3209 90.8359 62.1341L90.8988 62.1215C90.1254 62.8466 88.802 63.8196 86.9257 64.6935Z" fill="#D9D9D9"/>
</svg>
