<svg width="100" height="100" viewBox="0 0 100 100" fill="none" xmlns="http://www.w3.org/2000/svg">
<path d="M49.9998 58.8163C54.8689 58.8163 58.8161 54.8691 58.8161 50.0001C58.8161 45.131 54.8689 41.1838 49.9998 41.1838C45.1308 41.1838 41.1836 45.131 41.1836 50.0001C41.1836 54.8691 45.1308 58.8163 49.9998 58.8163Z" fill="#61DAFB"/>
<path d="M50 68.0626C76.1267 68.0626 97.3066 59.9757 97.3066 50C97.3066 40.0244 76.1267 31.9375 50 31.9375C23.8733 31.9375 2.69336 40.0244 2.69336 50C2.69336 59.9757 23.8733 68.0626 50 68.0626Z" stroke="#61DAFB" stroke-width="5"/>
<path d="M34.3564 59.0313C47.4197 81.6577 65.0131 95.9566 73.6523 90.9687C82.2915 85.9809 78.705 63.5951 65.6416 40.9687C52.5782 18.3423 34.9848 4.04343 26.3457 9.03126C17.7065 14.0191 21.293 36.4049 34.3564 59.0313Z" stroke="#61DAFB" stroke-width="5"/>
<path d="M34.3564 40.9687C21.293 63.5951 17.7065 85.9809 26.3457 90.9687C34.9849 95.9565 52.5783 81.6576 65.6416 59.0312C78.705 36.4048 82.2915 14.0191 73.6523 9.03124C65.0131 4.04341 47.4198 18.3423 34.3564 40.9687Z" stroke="#61DAFB" stroke-width="5"/>
</svg>
