<svg width="100" height="96" viewBox="0 0 100 96" fill="none" xmlns="http://www.w3.org/2000/svg">
<path d="M69.2895 66.8344C72.9798 66.4524 75.7794 63.2711 75.652 59.4532C75.5251 55.6356 72.3434 52.5813 68.5258 52.5813H68.2715C64.3262 52.7086 61.2723 56.0172 61.3997 59.9622C61.527 61.8711 62.2903 63.5254 63.4356 64.6707C59.109 73.1973 52.4918 79.4329 42.5661 84.6504C35.8215 88.2137 28.8227 89.4864 21.8238 88.5957C16.0973 87.8321 11.6434 85.2872 8.84336 81.0872C4.77148 74.8516 4.38984 68.1067 7.82579 61.3622C10.2438 56.5262 14.0609 52.9629 16.4789 51.1813C15.9699 49.527 15.2063 46.7274 14.8246 44.6915C-3.62735 58.0536 -1.71837 76.1243 3.88086 84.6504C8.08008 91.0137 16.6063 94.9586 26.0231 94.9586C28.568 94.9586 31.1129 94.7039 33.6582 94.068C49.9469 90.8864 62.2907 81.2145 69.2895 66.8344ZM91.6864 51.0543C82.0149 39.7282 67.7626 33.4926 51.4739 33.4926H49.4379C48.2926 31.202 45.8747 29.6747 43.2024 29.6747H42.9477C39.0032 29.802 35.9493 33.1106 36.0762 37.0559C36.2035 40.8735 39.3848 43.9278 43.2024 43.9278H43.4567C46.2563 43.8004 48.6743 42.0188 49.6922 39.6008H51.9829C61.6544 39.6008 70.8165 42.4004 79.0884 47.8727C85.4509 52.0723 90.0321 57.5446 92.577 64.1618C94.7403 69.5067 94.613 74.7243 92.3224 79.1786C88.7595 85.9231 82.7786 89.6137 74.8887 89.6137C69.7985 89.6137 64.963 88.0864 62.4176 86.9411C61.018 88.2137 58.4727 90.2496 56.6911 91.5227C62.1633 94.0676 67.7626 95.4676 73.1071 95.4676C85.3235 95.4676 94.3587 88.7227 97.7946 81.9782C101.485 74.5969 101.23 61.8711 91.6864 51.0543ZM27.041 68.9973C27.1684 72.8153 30.3496 75.8692 34.1672 75.8692H34.4219C38.3668 75.7422 41.4207 72.4332 41.2934 68.4883C41.1664 64.6704 37.9848 61.6165 34.1672 61.6165H33.9129C33.6582 61.6165 33.2762 61.6164 33.0223 61.7434C27.8047 53.0899 25.6414 43.6731 26.4051 33.4922C26.9137 25.8567 29.459 19.2391 33.9129 13.7668C37.6032 9.05825 44.7293 6.76763 49.5653 6.64067C63.054 6.38599 68.7801 23.184 69.1622 29.929C70.8165 30.3106 73.6161 31.2016 75.5251 31.8379C73.9977 11.2223 61.2723 0.532471 49.0563 0.532471C37.6032 0.532471 27.041 8.80435 22.8414 21.0211C16.9879 37.3102 20.8055 52.9629 27.9317 65.3071C27.2957 66.1977 26.9137 67.5977 27.041 68.9977V68.9973Z" fill="#764ABC"/>
</svg>
